# xmcd
#
# Track frame offsets: 
#        150
#        17687
#        40517
#        59797
#        80090
#        99610
#        117437
#        135570
#        159142
#        183600
#
# Disc length: 2639 seconds
#
# Revision: 2
# Processed by: cddbd v1.5.2PL0 Copyright (c) Steve Scherf et al.
# Submitted via: ExactAudioCopy v1.0b3
#
DISCID=810a4d0a
DTITLE=§ù¼w°¶ - Talking heart To heart
DYEAR=1998
DGENRE=Pop
TTITLE0=No one else comes close
TTITLE1=Talking heart to heart
TTITLE2=Sha la la
TTITLE3=It's all inside my mind
TTITLE4=I miss you most
TTITLE5=Believe
TTITLE6=Drive me crazy
TTITLE7=Dance with me
TTITLE8=Tell me
TTITLE9=Mandarina lady
EXTD=YEAR: 1998
EXTT0=
EXTT1=
EXTT2=
EXTT3=
EXTT4=
EXTT5=
EXTT6=
EXTT7=
EXTT8=
EXTT9=
PLAYORDER=
